inDegrees=yes
name=ik_lifting_orientations
DataType=double
version=3
OpenSimVersion=4.5-2024-01-10-34fd6af
endheader
time	pelvis_tilt	pelvis_list	pelvis_rotation	pelvis_tx	pelvis_ty	pelvis_tz	hip_flexion_r	hip_adduction_r	hip_rotation_r	knee_angle_r	knee_angle_r_beta	ankle_angle_r	subtalar_angle_r	mtp_angle_r	hip_flexion_l	hip_adduction_l	hip_rotation_l	knee_angle_l	knee_angle_l_beta	ankle_angle_l	subtalar_angle_l	mtp_angle_l	lumbar_extension	lumbar_bending	lumbar_rotation	arm_flex_r	arm_add_r	arm_rot_r	elbow_flex_r	pro_sup_r	wrist_flex_r	wrist_dev_r	arm_flex_l	arm_add_l	arm_rot_l	elbow_flex_l	pro_sup_l	wrist_flex_l	wrist_dev_l
0.6	-12.73375631196385	-17.52418380769274	-71.87081073151225	0	0.9399999998679526	0	43.93291174799041	-16.02679661257524	0	59.28901504724504	1.034788522838887	-8.474166886722671	0	0	43.93291174799041	-16.02679661257524	0	59.28901504724504	1.034788522838887	-8.474166886722671	0	0	-18.50322422872467	30.36568470006281	-29.54083147530989	12.77213460608708	-8.838038691204986	16.64079653698091	0.05177430324322762	5.14356535318086	0	0	0	-7.378835250088083	0	84.94168693970082	5.14356535318086	0	0
0.61	-12.84020853173894	-17.5530521850789	-72.23869154596272	0	0.9399999998679526	0	43.93345610884435	-16.01577662969155	0	59.28929901194535	1.034793478957867	-8.465983466356796	0	0	43.93345610884435	-16.01577662969155	0	59.28929901194535	1.034793478957867	-8.465983466356796	0	0	-18.71290873190611	30.36262168962438	-29.13479992863276	12.94020692301552	-8.768874212313076	17.08974628357312	0.06208798892627722	5.141736035465337	0	0	0	-7.380831959473649	0	84.94348568769063	5.141736035465337	0	0
0.62	-12.87527314034373	-17.55118263225197	-72.33713004030243	0	0.9399999998679526	0	43.93364070974715	-16.01205082782665	0	59.28939546948748	1.034795162459566	-8.463218576946375	0	0	43.93364070974715	-16.01205082782665	0	59.28939546948748	1.034795162459566	-8.463218576946375	0	0	-18.68723114684952	30.27035518738848	-29.13497188143976	12.91746637458159	-8.733704550339201	17.4714372231682	0.07240904110001797	5.141115248990673	0	0	0	-7.381509941243608	0	84.94409610046623	5.141115248990673	0	0
0.63	-12.85524637862307	-17.48210812869237	-72.5572759797612	0	0.9399999998679526	0	43.9340299282401	-16.00420554675301	0	59.28959896229248	1.034798714079017	-8.457398595845719	0	0	43.9340299282401	-16.00420554675301	0	59.28959896229248	1.034798714079017	-8.457398595845719	0	0	-18.67872262472955	30.14506500080696	-29.3046047131964	12.92304319880358	-8.71985359644802	18.01888159575241	0.08470612422734081	5.139806002675301	0	0	0	-7.382940129796106	0	84.94538346875217	5.139806002675301	0	0
0.64	-12.82753508537509	-17.37358762684894	-72.77849482623301	0	0.9399999998679526	0	43.93434369684679	-15.99789872600171	0	59.28976326294002	1.03480158166628	-8.452722860471779	0	0	43.93434369684679	-15.99789872600171	0	59.28976326294002	1.03480158166628	-8.452722860471779	0	0	-18.62912244382499	30.0070749550598	-29.46568252756212	12.93904988716939	-8.642479579847768	18.47162370676768	0.09837975912472664	5.138749856633315	0	0	0	-7.384094462772836	0	84.94642196659395	5.138749856633315	0	0
0.65	-12.80690899413225	-17.27104813078723	-72.93076092089075	0	0.9399999998679526	0	43.93457084787777	-15.99333038587017	0	59.28988209159154	1.034803655617495	-8.449336155507034	0	0	43.93457084787777	-15.99333038587017	0	59.28988209159154	1.034803655617495	-8.449336155507034	0	0	-18.55973863014852	29.85020883626309	-29.35053757508495	12.91224334191283	-8.647472228793433	18.434197086732	0.1134134257582201	5.137985503748729	0	0	0	-7.384929634207825	0	84.94717354701025	5.137985503748729	0	0
0.66	-12.75667987203687	-17.18164238596562	-72.94773645077373	0	0.9399999998679526	0	43.93471456582067	-15.99046768460582	0	59.28995776285824	1.034804976330248	-8.447217891214867	0	0	43.93471456582067	-15.99046768460582	0	59.28995776285824	1.034804976330248	-8.447217891214867	0	0	-18.44188314380127	29.69769757874093	-29.34923345650061	13.15573395091064	-8.516856521570991	18.27549836410994	0.1811676901550922	5.137500668718248	0	0	0	-7.385460512651624	0	84.94765028107786	5.137500668718248	0	0
0.67	-12.70316161004944	-17.08123514571916	-73.06134291378559	0	0.9399999998679526	0	43.93487336075404	-15.98728579402476	0	59.29004102877866	1.034806429594714	-8.444860773304217	0	0	43.93487336075404	-15.98728579402476	0	59.29004102877866	1.034806429594714	-8.444860773304217	0	0	-18.38113296885723	29.56465098065319	-29.3130630703395	13.30461521717965	-8.382969840413491	17.96139194047679	0.2185869400558474	5.136965819090964	0	0	0	-7.38604538697005	0	84.94817619358375	5.136965819090964	0	0
0.68	-12.51355530084965	-16.74605128886954	-73.41757783257685	0	0.9399999998679526	0	43.93531952586068	-15.97830830368625	0	59.29027409439355	1.034810497357067	-8.4382066230632	0	0	43.93531952586068	-15.97830830368625	0	59.29027409439355	1.034810497357067	-8.4382066230632	0	0	-18.30071332102951	29.11220309510835	-28.85583187862369	13.58596358399404	-8.124662369509545	16.91657732868897	0.213132917589017	5.135465124108219	0	0	0	-7.387684474758214	0	84.94965181137319	5.135465124108219	0	0
0.6899999999999999	-12.42431165058988	-16.53603086839994	-73.60297891299751	0	0.9399999998679526	0	43.93549222889178	-15.97487997393041	0	59.29036521017856	1.034812087627516	-8.435671672121947	0	0	43.93549222889178	-15.97487997393041	0	59.29036521017856	1.034812087627516	-8.435671672121947	0	0	-18.16509601900096	28.85498181142707	-28.5240812375688	13.61092459406213	-8.090640660271601	16.43654835040152	0.2782756463697951	5.134881998150316	0	0	0	-7.388323453300322	0	84.95022519438029	5.134881998150316	0	0
0.7	-12.34600921546947	-16.4036031165811	-73.74121770556364	0	0.9399999998679526	0	43.93568517762114	-15.97105683991395	0	59.29046711183352	1.034813866146908	-8.432845977666245	0	0	43.93568517762114	-15.97105683991395	0	59.29046711183352	1.034813866146908	-8.432845977666245	0	0	-18.07681221575234	28.55705956005508	-28.27728454217583	13.47356744799873	-8.057434475048311	16.09159688827778	0.4301509379391569	5.134230230900686	0	0	0	-7.389037899098057	0	84.95086607197838	5.134230230900686	0	0
0.71	-12.27144810815463	-16.33321780130409	-73.68912641654342	0	0.9399999998679526	0	43.93602410336148	-15.96431184440042	0	59.29064539313515	1.034816977742616	-8.427857879295022	0	0	43.93602410336148	-15.96431184440042	0	59.29064539313515	1.034816977742616	-8.427857879295022	0	0	-17.9918285073892	28.319985337719	-28.11288590946027	13.35369598472234	-8.068922552871598	15.66496053594206	0.712970077970246	5.133087033563345	0	0	0	-7.39028943843141	0	84.95199016794321	5.133087033563345	0	0
0.72	-12.18449446677263	-16.21864267718364	-73.7358388818167	0	0.9399999998679526	0	43.93635539789401	-15.95763940566139	0	59.29081795000685	1.034819989428174	-8.422914231394394	0	0	43.93635539789401	-15.95763940566139	0	59.29081795000685	1.034819989428174	-8.422914231394394	0	0	-17.91157263506911	28.12408315510086	-27.91435111361458	13.27141155785393	-8.208943838335765	15.51743872764847	1.203694137566816	5.131973677691047	0	0	0	-7.391504453509067	0	84.95308491868859	5.131973677691047	0	0
0.73	-12.10025719309341	-16.09836091093402	-73.78653052613838	0	0.9399999998679526	0	43.93697524174793	-15.94521211964445	0	59.29114140016132	1.034825634698336	-8.413717918654095	0	0	43.93697524174793	-15.94521211964445	0	59.29114140016132	1.034825634698336	-8.413717918654095	0	0	-17.77287951212157	27.79896784288291	-27.60184963462089	13.17546663511137	-8.445595179587906	15.6934746642978	2.095671633464575	5.12988882749447	0	0	0	-7.393781146704479	0	84.9551349303043	5.12988882749447	0	0
0.74	-11.98443719023788	-15.90691647011289	-73.93535287597044	0	0.9399999998679526	0	43.93728201497149	-15.93905742572268	0	59.29130142280269	1.034828427620305	-8.409162650522626	0	0	43.93728201497149	-15.93905742572268	0	59.29130142280269	1.034828427620305	-8.409162650522626	0	0	-17.619678761795	27.39290695952467	-27.27620119698556	13.02949443024558	-8.642675920696709	16.0015161000855	2.809386510161171	5.128857112246785	0	0	0	-7.394907723024441	0	84.95614940520018	5.128857112246785	0	0
0.75	-11.89128538836027	-15.72679968046935	-74.10394610956719	0	0.9399999998679526	0	43.93792183574404	-15.92626389305749	0	59.29163539854553	1.03483425659664	-8.399703970158154	0	0	43.93792183574404	-15.92626389305749	0	59.29163539854553	1.03483425659664	-8.399703970158154	0	0	-17.46937287808286	26.97501863695437	-26.7441340975798	12.75574287633956	-9.009930018095988	16.15454716526421	3.890125418955324	5.126704403746923	0	0	0	-7.397258972940644	0	84.95826614164477	5.126704403746923	0	0
0.76	-11.75971856711311	-15.54149860259552	-74.16261579269091	0	0.9399999998679526	0	43.93828456265764	-15.91900475812556	0	59.29182464407378	1.034837559554203	-8.394335983560264	0	0	43.93828456265764	-15.91900475812556	0	59.29182464407378	1.034837559554203	-8.394335983560264	0	0	-17.25899161189955	26.45349903830547	-26.15951670068146	12.3512508419713	-9.38877507992231	16.13391102489264	4.997738743232822	5.12548418009503	0	0	0	-7.398591609570579	0	84.95946597514013	5.12548418009503	0	0
0.77	-11.607199382214	-15.32141727914466	-74.18985423757137	0	0.9399999998679526	0	43.93894450642399	-15.90584972290731	0	59.29216928239317	1.034843574627604	-8.384620076220557	0	0	43.93894450642399	-15.90584972290731	0	59.29216928239317	1.034843574627604	-8.384620076220557	0	0	-16.99224077689459	25.92482212566228	-25.64781284099457	11.87961314479725	-9.767429321783435	16.07657048451133	6.353952271684699	5.123262903125511	0	0	0	-7.401018369621705	0	84.96165013485287	5.123262903125511	0	0
0.78	-11.43763742657128	-15.10291154650766	-74.2833919830918	0	0.9399999998679526	0	43.93926074599612	-15.89953781979115	0	59.29233430932816	1.034846454890974	-8.379956923743693	0	0	43.93926074599612	-15.89953781979115	0	59.29233430932816	1.034846454890974	-8.379956923743693	0	0	-16.76524777889965	25.36099128114615	-25.01804197803418	11.40402003969811	-10.09219827075493	15.76611065729974	7.630659356290338	5.122198757197284	0	0	0	-7.402180751873827	0	84.96269649893196	5.122198757197284	0	0
0.79	-11.26153386062557	-14.8431902942746	-74.36487341868836	0	0.9399999998679526	0	43.93954862143271	-15.89379649921335	0	59.29248454344221	1.034849076970913	-8.37571647113429	0	0	43.93954862143271	-15.89379649921335	0	59.29248454344221	1.034849076970913	-8.37571647113429	0	0	-16.4436922980961	24.73258428292444	-24.51617373943642	11.1040296990745	-10.10046874004977	15.41597545970987	8.521934911525774	5.121229976101436	0	0	0	-7.403239018588478	0	84.96364909178065	5.121229976101436	0	0
0.8	-11.05562457077351	-14.53328643009384	-74.46844227163913	0	0.9399999998679526	0	43.93995451239164	-15.88571979806214	0	59.29269661658873	1.034852778345575	-8.369754327141321	0	0	43.93995451239164	-15.88571979806214	0	59.29269661658873	1.034852778345575	-8.369754327141321	0	0	-16.03442668266512	23.98158884648343	-24.06707477029443	11.10586858890728	-9.478021822964758	14.50846667450142	9.097418628664158	5.119863333858976	0	0	0	-7.404732527707234	0	84.96499289798413	5.119863333858976	0	0
0.8100000000000001	-10.89990788519092	-14.25838466687433	-74.6750159704341	0	0.9399999998679526	0	43.94037051468035	-15.87743856495223	0	59.29291374721439	1.0348565679899	-8.36364194148795	0	0	43.94037051468035	-15.87743856495223	0	59.29291374721439	1.0348565679899	-8.36364194148795	0	0	-15.69618028524653	23.22900412415412	-23.3579991163043	11.22881303951466	-10.08306510528064	14.2700511974032	10.05150059928358	5.118463082308573	0	0	0	-7.406262316822168	0	84.96636975166973	5.118463082308573	0	0
0.82	-10.64373664957647	-13.91248225059205	-74.88402632184251	0	0.9399999998679526	0	43.94445114659227	-15.82184507732575	0	59.29560545203252	1.034903547101468	-8.325559943800176	0	0	43.94445114659227	-15.82184507732575	0	59.29560545203252	1.034903547101468	-8.325559943800176	0	0	-15.31609403167263	22.3745237384551	-22.51460307173471	11.63276142654218	-11.61155156738844	14.52761216616174	11.99808012854369	5.10338000398905	0	0	0	-7.424018402922288	0	84.981201583078	5.10338000398905	0	0
0.83	-10.38912516709211	-13.47345197380336	-75.18402986734365	0	0.9399999998679526	0	43.94970610307082	-15.75084778446055	0	59.29907391250102	1.034964083156619	-8.277053002070495	0	0	43.94970610307082	-15.75084778446055	0	59.29907391250102	1.034964083156619	-8.277053002070495	0	0	-14.81808870531752	21.39335627680703	-21.59954274662764	11.57315797229952	-12.43124224538742	13.92150396922126	13.23471253393969	5.083931443573991	0	0	0	-7.446933407074359	0	85.00032619086723	5.083931443573991	0	0
